PathFileType	3	(X/Y/Z)	feet_movements_1__fused_aligned.trc
DataRate	CameraRate	NumFrames	NumMarkers	Units	OrigDataRate	OrigDataStartFrame	OrigNumFrames
100.0	100.0	18	19	mm	100.0	867	1830
Frame#	Time	pelvis			neck			head			hip_left			hip_right			knee_left			knee_right			ankle_left			ankle_right			heel_left			heel_right			toe_left			toe_right			shoulder_left			shoulder_right			elbow_left			elbow_right			wrist_left			wrist_right			
		X1	Y1	Z1	X2	Y2	Z2	X3	Y3	Z3	X4	Y4	Z4	X5	Y5	Z5	X6	Y6	Z6	X7	Y7	Z7	X8	Y8	Z8	X9	Y9	Z9	X10	Y10	Z10	X11	Y11	Z11	X12	Y12	Z12	X13	Y13	Z13	X14	Y14	Z14	X15	Y15	Z15	X16	Y16	Z16	X17	Y17	Z17	X18	Y18	Z18	X19	Y19	Z19	
867	8.66000	68.476383	949.526134	411.170472	104.581299	1388.944941	694.410241	109.510256	1543.046840	637.381574	-3.510304	983.847575	386.072439	140.463072	915.204693	436.268489	81.990898	1283.716983	85.450632	254.046953	531.270034	263.905458	104.891396	1043.104562	-229.941422	138.386381	161.493457	394.842432	102.780313	990.184751	-253.463060	110.444013	125.769340	434.293526	154.222616	1170.694620	-362.731020	204.352772	54.688698	250.651534	-73.610027	1364.207703	660.235471	277.347607	1328.812210	743.660436	-235.072106	1195.666231	491.595737	404.047299	1114.222718	610.945259	-330.344722	1109.549717	277.318909	457.365512	1070.740924	372.254411
868	8.67000	67.858200	949.846524	410.496066	104.142602	1389.251311	693.349761	109.203490	1543.166638	636.096507	-4.216658	984.246152	385.404787	139.933061	915.446897	435.587331	81.988734	1286.514883	87.455153	253.180397	531.419030	263.412485	106.640712	1039.977513	-224.085206	137.535354	161.655943	394.470401	104.702537	986.677129	-246.907192	109.637640	125.957219	433.971095	156.494660	1165.854381	-358.081988	203.265025	54.634795	250.275572	-74.017875	1364.741790	659.084759	276.782385	1329.005867	742.805796	-235.603523	1195.658525	491.179472	402.762651	1113.709621	610.861394	-330.645736	1109.436657	276.956673	456.529620	1070.201161	372.453131
869	8.68000	67.240017	950.166914	409.821661	103.703904	1389.557681	692.289281	108.896724	1543.286437	634.811440	-4.923013	984.644728	384.737134	139.403050	915.689100	434.906172	81.986570	1289.312782	89.459674	252.313842	531.568027	262.919512	108.390027	1036.850464	-218.228989	136.684326	161.818430	394.098370	106.624761	983.169508	-240.351325	108.831267	126.145097	433.648664	158.766705	1161.014142	-353.432956	202.177278	54.580891	249.899609	-74.425724	1365.275877	657.934047	276.217163	1329.199524	741.951157	-236.134940	1195.650819	490.763207	401.478003	1113.196523	610.777529	-330.946751	1109.323596	276.594437	455.693727	1069.661398	372.651852
870	8.69000	66.621834	950.487304	409.147255	103.265206	1389.864052	691.228801	108.589958	1543.406236	633.526374	-5.629368	985.043305	384.069482	138.873039	915.931304	434.225013	81.984406	1292.110681	91.464195	251.447287	531.717023	262.426539	110.139342	1033.723415	-212.372773	135.833299	161.980916	393.726339	108.546985	979.661886	-233.795457	108.024894	126.332976	433.326234	161.038749	1156.173903	-348.783924	201.089531	54.526988	249.523647	-74.833572	1365.809964	656.783335	275.651941	1329.393181	741.096517	-236.666357	1195.643113	490.346943	400.193354	1112.683425	610.693664	-331.247766	1109.210536	276.232201	454.857835	1069.121635	372.850573
871	8.70000	66.003651	950.807694	408.472849	102.826509	1390.170422	690.168322	108.283193	1543.526035	632.241307	-6.335723	985.441882	383.401829	138.343028	916.173507	433.543854	81.982242	1294.908581	93.468716	250.580732	531.866019	261.933567	111.888657	1030.596366	-206.516557	134.982271	162.143402	393.354309	110.469209	976.154265	-227.239589	107.218521	126.520855	433.003803	163.310794	1151.333665	-344.134892	200.001783	54.473085	249.147684	-75.241421	1366.344051	655.632623	275.086718	1329.586838	740.241878	-237.197774	1195.635407	489.930678	398.908706	1112.170328	610.609800	-331.548781	1109.097475	275.869965	454.021943	1068.581872	373.049294
872	8.71000	66.123656	951.272144	408.115055	103.026776	1390.616910	689.506927	108.578477	1543.794690	631.387423	-6.246873	986.001754	383.006307	138.494146	916.542534	433.223802	82.932694	1297.282137	95.600281	250.382247	532.037278	262.023718	114.456907	1028.681542	-200.507432	134.794153	162.234967	393.405562	113.089641	973.976303	-220.538587	107.042131	126.634320	433.074887	166.824167	1147.482253	-339.212943	199.747113	54.331185	249.305582	-75.006868	1366.963570	654.769904	275.183651	1329.941814	739.780070	-236.935442	1195.687103	489.604586	398.228976	1111.767020	610.934450	-330.942991	1108.944620	275.588447	453.662337	1068.943156	373.587333
873	8.72000	66.243661	951.736593	407.757262	103.227043	1391.063398	688.845532	108.873760	1544.063346	630.533539	-6.158024	986.561626	382.610785	138.645264	916.911560	432.903749	83.883146	1299.655694	97.731846	250.183761	532.208537	262.113870	117.025156	1026.766718	-194.498306	134.606035	162.326531	393.456815	115.710073	971.798342	-213.837584	106.865742	126.747786	433.145972	170.337541	1143.630841	-334.290995	199.492443	54.189286	249.463479	-74.772315	1367.583090	653.907184	275.280583	1330.296791	739.318261	-236.673110	1195.738799	489.278493	397.549247	1111.363713	611.259101	-330.337200	1108.791766	275.306930	453.302731	1069.304440	374.125371
874	8.73000	66.363666	952.201043	407.399468	103.427311	1391.509886	688.184137	109.169044	1544.332002	629.679655	-6.069174	987.121499	382.215262	138.796382	917.280586	432.583697	84.833598	1302.029250	99.863411	249.985276	532.379795	262.204022	119.593405	1024.851894	-188.489180	134.417917	162.418095	393.508068	118.330506	969.620381	-207.136581	106.689352	126.861251	433.217056	173.850915	1139.779430	-329.369046	199.237773	54.047386	249.621377	-74.537763	1368.202609	653.044464	275.377515	1330.651767	738.856453	-236.410777	1195.790494	488.952401	396.869518	1110.960406	611.583751	-329.731410	1108.638911	275.025412	452.943126	1069.665725	374.663410
875	8.74000	66.483671	952.665492	407.041674	103.627578	1391.956373	687.522742	109.464328	1544.600658	628.825770	-5.980325	987.681371	381.819740	138.947500	917.649612	432.263644	85.784050	1304.402807	101.994976	249.786791	532.551054	262.294173	122.161654	1022.937070	-182.480055	134.229798	162.509659	393.559320	120.950938	967.442420	-200.435579	106.512962	126.974716	433.288141	177.364288	1135.928018	-324.447097	198.983103	53.905487	249.779275	-74.303210	1368.822128	652.181745	275.474448	1331.006744	738.394645	-236.148445	1195.842190	488.626309	396.189789	1110.557098	611.908402	-329.125620	1108.486056	274.743894	452.583520	1070.027009	375.201449
876	8.75000	66.603676	953.129942	406.683880	103.827845	1392.402861	686.861347	109.759612	1544.869313	627.971886	-5.891475	988.241243	381.424218	139.098618	918.018639	431.943592	86.734503	1306.776363	104.126541	249.588306	532.722313	262.384325	124.729903	1021.022246	-176.470929	134.041680	162.601223	393.610573	123.571370	965.264459	-193.734576	106.336573	127.088181	433.359225	180.877662	1132.076606	-319.525148	198.728432	53.763587	249.937172	-74.068657	1369.441647	651.319025	275.571380	1331.361720	737.932837	-235.886113	1195.893886	488.300217	395.510060	1110.153791	612.233053	-328.519829	1108.333201	274.462377	452.223914	1070.388293	375.739488
877	8.76000	66.723681	953.594391	406.326086	104.028113	1392.849349	686.199953	110.054896	1545.137969	627.118002	-5.802626	988.801116	381.028696	139.249736	918.387665	431.623539	87.684955	1309.149920	106.258107	249.389820	532.893572	262.474477	127.298152	1019.107422	-170.461804	133.853562	162.692788	393.661826	126.191802	963.086498	-187.033573	106.160183	127.201646	433.430310	184.391036	1128.225195	-314.603199	198.473762	53.621688	250.095070	-73.834104	1370.061166	650.456306	275.668312	1331.716697	737.471029	-235.623780	1195.945581	487.974124	394.830331	1109.750484	612.557703	-327.914039	1108.180347	274.180859	451.864309	1070.749577	376.277527
878	8.77000	66.843686	954.058841	405.968292	104.228380	1393.295837	685.538558	110.350179	1545.406625	626.264118	-5.713776	989.360988	380.633173	139.400853	918.756691	431.303486	88.635407	1311.523476	108.389672	249.191335	533.064830	262.564629	129.866401	1017.192598	-164.452678	133.665444	162.784352	393.713079	128.812234	960.908537	-180.332571	105.983794	127.315112	433.501394	187.904410	1124.373783	-309.681250	198.219092	53.479788	250.252968	-73.599552	1370.680685	649.593586	275.765245	1332.071673	737.009220	-235.361448	1195.997277	487.648032	394.150602	1109.347176	612.882354	-327.308248	1108.027492	273.899341	451.504703	1071.110861	376.815566
879	8.78000	66.963692	954.523290	405.610499	104.428647	1393.742325	684.877163	110.645463	1545.675281	625.410233	-5.624927	989.920860	380.237651	139.551971	919.125718	430.983434	89.585859	1313.897033	110.521237	248.992850	533.236089	262.654780	132.434650	1015.277774	-158.443553	133.477326	162.875916	393.764332	131.432666	958.730575	-173.631568	105.807404	127.428577	433.572478	191.417783	1120.522371	-304.759302	197.964422	53.337889	250.410865	-73.364999	1371.300204	648.730867	275.862177	1332.426650	736.547412	-235.099116	1196.048973	487.321940	393.470872	1108.943869	613.207004	-326.702458	1107.874637	273.617824	451.145098	1071.472145	377.353605
880	8.79000	67.083697	954.987740	405.252705	104.628914	1394.188813	684.215768	110.940747	1545.943936	624.556349	-5.536077	990.480733	379.842129	139.703089	919.494744	430.663381	90.536312	1316.270589	112.652802	248.794365	533.407348	262.744932	135.002899	1013.362950	-152.434427	133.289208	162.967480	393.815585	134.053099	956.552614	-166.930565	105.631014	127.542042	433.643563	194.931157	1116.670960	-299.837353	197.709752	53.195989	250.568763	-73.130446	1371.919724	647.868147	275.959109	1332.781626	736.085604	-234.836784	1196.100668	486.995848	392.791143	1108.540562	613.531655	-326.096668	1107.721782	273.336306	450.785492	1071.833429	377.891644
881	8.80000	67.203702	955.452189	404.894911	104.829182	1394.635301	683.554373	111.236031	1546.212592	623.702465	-5.447228	991.040605	379.446607	139.854207	919.863770	430.343329	91.486764	1318.644146	114.784367	248.595879	533.578606	262.835084	137.571148	1011.448127	-146.425302	133.101090	163.059045	393.866838	136.673531	954.374653	-160.229563	105.454625	127.655507	433.714647	198.444531	1112.819548	-294.915404	197.455081	53.054090	250.726661	-72.895893	1372.539243	647.005428	276.056042	1333.136602	735.623796	-234.574451	1196.152364	486.669756	392.111414	1108.137254	613.856306	-325.490877	1107.568928	273.054788	450.425886	1072.194713	378.429683
882	8.81000	68.381538	955.755579	404.415096	105.813010	1394.996983	682.872908	112.206899	1546.439004	622.864242	-4.318924	991.367668	378.968606	141.081620	920.143487	429.861689	92.972125	1320.113463	116.235007	249.450014	533.627879	262.734718	140.426138	1010.431435	-141.762989	133.872914	163.011961	393.741175	139.589454	953.270082	-155.023634	106.224605	127.624107	433.595232	201.895513	1110.163272	-290.796965	198.198686	52.823133	250.721520	-71.890496	1372.974210	646.131367	277.038215	1333.500668	735.043168	-233.360206	1196.100090	485.946081	392.606802	1107.806159	614.047484	-323.874944	1107.101264	272.216905	451.000241	1072.029884	378.585167
883	8.82000	69.559375	956.058969	403.935282	106.796839	1395.358666	682.191442	113.177767	1546.665415	622.026019	-3.190621	991.694732	378.490605	142.309033	920.423203	429.380050	94.457487	1321.582780	117.685647	250.304149	533.677151	262.634353	143.281128	1009.414744	-137.100676	134.644738	162.964877	393.615512	142.505378	952.165511	-149.817705	106.994586	127.592708	433.475816	205.346495	1107.506996	-286.678526	198.942290	52.592177	250.716380	-70.885098	1373.409177	645.257307	278.020387	1333.864733	734.462539	-232.145960	1196.047817	485.222406	393.102190	1107.475063	614.238662	-322.259012	1106.633600	271.379023	451.574596	1071.865054	378.740651
884	8.83000	70.737212	956.362358	403.455467	107.780668	1395.720349	681.509977	114.148635	1546.891827	621.187796	-2.062318	992.021795	378.012604	143.536445	920.702920	428.898410	95.942848	1323.052097	119.136287	251.158283	533.726423	262.533987	146.136117	1008.398053	-132.438363	135.416562	162.917793	393.489848	145.421301	951.060940	-144.611775	107.764567	127.561308	433.356401	208.797477	1104.850720	-282.560087	199.685894	52.361220	250.711240	-69.879700	1373.844145	644.383247	279.002560	1334.228799	733.881911	-230.931715	1195.995543	484.498732	393.597578	1107.143967	614.429841	-320.643079	1106.165936	270.541140	452.148951	1071.700225	378.896134
